<svg id="visual" viewBox="0 0 960 300" width="960" height="300" xmlns="http://www.w3.org/2000/svg" xmlns:xlink="http://www.w3.org/1999/xlink" version="1.1"><rect x="0" y="0" width="960" height="300" fill="#fff"></rect><path d="M0 174L17.8 178.7C35.7 183.3 71.3 192.7 106.8 193.3C142.3 194 177.7 186 213.2 188.5C248.7 191 284.3 204 320 203.8C355.7 203.7 391.3 190.3 426.8 186.8C462.3 183.3 497.7 189.7 533.2 190C568.7 190.3 604.3 184.7 640 182C675.7 179.3 711.3 179.7 746.8 179.2C782.3 178.7 817.7 177.3 853.2 181.2C888.7 185 924.3 194 942.2 198.5L960 203L960 301L942.2 301C924.3 301 888.7 301 853.2 301C817.7 301 782.3 301 746.8 301C711.3 301 675.7 301 640 301C604.3 301 568.7 301 533.2 301C497.7 301 462.3 301 426.8 301C391.3 301 355.7 301 320 301C284.3 301 248.7 301 213.2 301C177.7 301 142.3 301 106.8 301C71.3 301 35.7 301 17.8 301L0 301Z" fill="#fdefe8"></path><path d="M0 237L17.8 233.2C35.7 229.3 71.3 221.7 106.8 220.3C142.3 219 177.7 224 213.2 223.3C248.7 222.7 284.3 216.3 320 217C355.7 217.7 391.3 225.3 426.8 223.8C462.3 222.3 497.7 211.7 533.2 210.3C568.7 209 604.3 217 640 217.3C675.7 217.7 711.3 210.3 746.8 210.8C782.3 211.3 817.7 219.7 853.2 222.5C888.7 225.3 924.3 222.7 942.2 221.3L960 220L960 301L942.2 301C924.3 301 888.7 301 853.2 301C817.7 301 782.3 301 746.8 301C711.3 301 675.7 301 640 301C604.3 301 568.7 301 533.2 301C497.7 301 462.3 301 426.8 301C391.3 301 355.7 301 320 301C284.3 301 248.7 301 213.2 301C177.7 301 142.3 301 106.8 301C71.3 301 35.7 301 17.8 301L0 301Z" fill="#ffc0a0"></path><path d="M0 249L17.8 246.3C35.7 243.7 71.3 238.3 106.8 239C142.3 239.7 177.7 246.3 213.2 250C248.7 253.7 284.3 254.3 320 250.8C355.7 247.3 391.3 239.7 426.8 236.2C462.3 232.7 497.7 233.3 533.2 237.2C568.7 241 604.3 248 640 250.3C675.7 252.7 711.3 250.3 746.8 248C782.3 245.7 817.7 243.3 853.2 240C888.7 236.7 924.3 232.3 942.2 230.2L960 228L960 301L942.2 301C924.3 301 888.7 301 853.2 301C817.7 301 782.3 301 746.8 301C711.3 301 675.7 301 640 301C604.3 301 568.7 301 533.2 301C497.7 301 462.3 301 426.8 301C391.3 301 355.7 301 320 301C284.3 301 248.7 301 213.2 301C177.7 301 142.3 301 106.8 301C71.3 301 35.7 301 17.8 301L0 301Z" fill="#f98f5d"></path><path d="M0 257L17.8 260.5C35.7 264 71.3 271 106.8 275.3C142.3 279.7 177.7 281.3 213.2 278.3C248.7 275.3 284.3 267.7 320 266.3C355.7 265 391.3 270 426.8 273C462.3 276 497.7 277 533.2 277.5C568.7 278 604.3 278 640 278C675.7 278 711.3 278 746.8 276.8C782.3 275.7 817.7 273.3 853.2 271.5C888.7 269.7 924.3 268.3 942.2 267.7L960 267L960 301L942.2 301C924.3 301 888.7 301 853.2 301C817.7 301 782.3 301 746.8 301C711.3 301 675.7 301 640 301C604.3 301 568.7 301 533.2 301C497.7 301 462.3 301 426.8 301C391.3 301 355.7 301 320 301C284.3 301 248.7 301 213.2 301C177.7 301 142.3 301 106.8 301C71.3 301 35.7 301 17.8 301L0 301Z" fill="#ec5a17"></path></svg>